<svg width="24" height="24" fill="none" xmlns="http://www.w3.org/2000/svg"><path d="M11.641 21.425c-2.16 0-4.26-.803-5.62-2.147a8.434 8.434 0 0 1-2.372-3.662 8.41 8.41 0 0 1-.266-4.202 22.908 22.908 0 0 1-.756-.616C1.57 9.895.822 9.07.407 8.346c-.443-.777-.524-1.466-.24-2.048C.527 5.557 1.4 5.18 2.758 5.18c1.413 0 3.13.407 4.36.763A8.355 8.355 0 0 1 12.87 4.72 8.454 8.454 0 0 1 19 9.007a8.26 8.26 0 0 1 .992 3.26c2.232 1.638 4.665 3.911 3.845 5.59-.363.745-1.23 1.122-2.578 1.122-1.16 0-2.296-.232-3.27-.472a8.399 8.399 0 0 1-1.9 1.633.718.718 0 0 1-.764-1.217 7.004 7.004 0 0 0 1.094-.85c-1.919-.589-4.032-1.438-6.141-2.467-2.047-1-3.969-2.111-5.585-3.23a6.914 6.914 0 0 0 1.011 4.307 2.084 2.084 0 0 1 1.778-.99c.671 0 1.305.315 1.696.844a2.1 2.1 0 0 1-.351 2.864 7.014 7.014 0 0 0 3.05.584h.023a.717.717 0 0 1 .527 1.207.712.712 0 0 1-.5.228 6.76 6.76 0 0 1-.286.005zm-4.153-4.299a.649.649 0 0 0-.649.56.67.67 0 0 0 .654.758.664.664 0 0 0 .653-.563.657.657 0 0 0-.658-.755zm11.402.113.173.037c.853.174 1.59.263 2.19.263.902 0 1.24-.204 1.293-.312.057-.116-.002-.537-.623-1.305-.453-.56-1.127-1.2-1.962-1.87-.01.074-.019.147-.03.219a8.33 8.33 0 0 1-1.04 2.968zM5.014 10.841c1.65 1.195 3.685 2.394 5.895 3.473 2.273 1.11 4.522 1.992 6.518 2.558a7.093 7.093 0 0 0 1.07-4.978 3.958 3.958 0 0 1-3.16.683 2.894 2.894 0 0 1-2.908 1.4 2.871 2.871 0 0 1-2.412-3.262 2.852 2.852 0 0 1 2.191-2.37 3.925 3.925 0 0 1 .859-2.13 6.98 6.98 0 0 0-1.414-.148 7.08 7.08 0 0 0-4.148 1.37 6.853 6.853 0 0 0-2.491 3.404zm9.571-4.119a2.496 2.496 0 0 0-.928 1.604c-.029.196-.035.4-.017.602a.683.683 0 0 1-.173.528.83.83 0 0 1-.616.253c-.701 0-1.308.524-1.412 1.218-.056.373.04.749.27 1.06a1.418 1.418 0 0 0 1.148.584c.645 0 1.211-.434 1.38-1.056a.723.723 0 0 1 .964-.478 2.519 2.519 0 0 0 2.857-.678 7.028 7.028 0 0 0-3.473-3.637zM2.763 6.617c-.913 0-1.253.204-1.306.312-.088.18.11 1.076 2.103 2.776.084.072.172.145.26.218a8.403 8.403 0 0 1 1.902-2.865c-1.088-.268-2.05-.419-2.803-.438a4.48 4.48 0 0 0-.156-.003zm17.481.863c-.957 0-1.81-.606-2.121-1.51a2.222 2.222 0 0 1 .11-1.71A2.224 2.224 0 0 1 20.228 3a2.25 2.25 0 0 1 2.133 1.508c.194.56.154 1.167-.11 1.71a2.224 2.224 0 0 1-2.007 1.263zm-.01-3.044a.799.799 0 0 0-.715.451A.806.806 0 0 0 20.505 6a.815.815 0 0 0 .498-1.023.82.82 0 0 0-.77-.54z" fill="#fff"/><path d="M13.916 21.076a.729.729 0 0 1-.667-.442.712.712 0 0 1 .002-.55.713.713 0 0 1 .659-.443.73.73 0 0 1 .667.442.72.72 0 0 1-.66.994z" fill="#fff"/></svg>