<svg width="24" height="24" fill="none" xmlns="http://www.w3.org/2000/svg"><path d="M11.964 23.976c-3.196 0-6.2-1.245-8.46-3.505A11.885 11.885 0 0 1 0 12.011v-.023A11.91 11.91 0 0 1 3.511 3.51 11.908 11.908 0 0 1 11.988 0h.024c3.2 0 6.21 1.246 8.474 3.51A11.91 11.91 0 0 1 24 11.982a.688.688 0 0 1-.69.69H8.92l.009.28c.03 1.096.116 2.162.251 3.17l.04.29.286-.061c.81-.172 1.643-.26 2.477-.261.488.02.708.359.71.688.003.447-.342.665-.688.683-.77.001-1.538.084-2.283.247l-.26.057.052.261c.187.956.537 2.032.934 2.88.512 1.09 1.031 1.66 1.545 1.696h.018a.68.68 0 0 1 .494.21c.13.135.198.314.192.502-.012.358-.348.66-.733.66zM7.843 18.31a10.57 10.57 0 0 0-2.502 1.508l-.26.211.26.211a10.553 10.553 0 0 0 3.686 1.936l.611.18-.294-.566c-.435-.836-.846-2.035-1.13-3.29l-.072-.319-.3.129zM1.44 12.97c.2 2.179 1.06 4.215 2.485 5.89l.175.205.207-.174a11.899 11.899 0 0 1 3.383-2.002l.202-.078-.031-.215a31.422 31.422 0 0 1-.307-3.66l-.008-.263H1.414l.027.296zm7.74-5.118a30.314 30.314 0 0 0-.252 3.169l-.009.28h6.231l-.008-.28a30.273 30.273 0 0 0-.253-3.18l-.04-.291-.287.063c-.822.179-1.68.27-2.55.27-.856 0-1.699-.088-2.506-.261l-.288-.062-.039.292zM3.926 5.115a10.534 10.534 0 0 0-2.486 5.89l-.027.297h6.134l.008-.264c.034-1.268.138-2.5.307-3.66l.031-.214-.202-.079a11.911 11.911 0 0 1-3.383-2.001l-.207-.174-.175.205zm15.788-.032a11.9 11.9 0 0 1-3.339 1.985l-.201.079.031.214a31.46 31.46 0 0 1 .31 3.676l.007.264h6.086l-.027-.296c-.2-2.18-1.06-4.216-2.485-5.89l-.175-.206-.207.174zm-7.656-3.711c-.497 0-1.26.493-2.071 2.84-.178.53-.337 1.111-.473 1.73l-.058.265.265.059c.738.163 1.508.246 2.29.246.798 0 1.585-.086 2.337-.256l.258-.059-.051-.26c-.273-1.386-1.271-4.46-2.463-4.565h-.034zm-3.032.427a10.55 10.55 0 0 0-3.685 1.935l-.26.212.26.211a10.565 10.565 0 0 0 2.501 1.508l.3.128.072-.317c.138-.604.296-1.175.471-1.698.2-.597.422-1.133.66-1.594l.29-.564-.609.179zm5.708.401c.234.457.453.988.65 1.578.174.518.33 1.083.468 1.68l.073.318.3-.13a10.53 10.53 0 0 0 2.456-1.489l.26-.211-.26-.211a10.554 10.554 0 0 0-3.628-1.919l-.61-.183.29.567zm8.579 21.776a.682.682 0 0 1-.486-.201l-3.629-3.63-1.884 1.903a.69.69 0 0 1-.693.172.683.683 0 0 1-.47-.539l-.985-5.746a.688.688 0 0 1 .787-.793l5.747.938c.254.042.462.22.541.465a.683.683 0 0 1-.165.695l-1.912 1.93 3.634 3.635a.682.682 0 0 1-.485 1.17zm-6.035-3.84 2.887-2.916-3.484-.569.597 3.484z" fill="#fff"/></svg>