<svg width="24" height="24" fill="none" xmlns="http://www.w3.org/2000/svg"><path d="m.79 12 2.803-8.407L12 .79l8.407 2.802L23.21 12l-2.802 8.407L12 23.21l-8.407-2.802L.79 12z" stroke="#fff" stroke-width="1.5"/><path d="m.79 12 2.803-8.407L12 .79l8.407 2.802L23.21 12l-2.802 8.407L12 23.21l-8.407-2.802L.79 12z" stroke="#fff" stroke-width="1.5"/><path d="m.79 12 2.803-8.407L12 .79l8.407 2.802L23.21 12l-2.802 8.407L12 23.21l-8.407-2.802L.79 12z" stroke="#fff" stroke-width="1.5"/><rect x="9.5" y="5.5" width="5" height="5" rx="2.5" stroke="#fff"/><rect x="5.5" y="12.5" width="5" height="5" rx="2.5" stroke="#fff"/><rect x="13.5" y="12.5" width="5" height="5" rx="2.5" stroke="#fff"/><path fill="#fff" d="m13 10.707.707-.707 2.121 2.121-.707.707zM10.121 10l.707.707-2.121 2.121L8 12.121z"/></svg>