<svg width="24" height="24" viewBox="0 0 24 24" fill="none" xmlns="http://www.w3.org/2000/svg">
<path d="M2.60224 23.9952C1.16454 23.9952 0 22.8259 0 21.393V19.6198C0 18.0431 0.675719 16.5479 1.85463 15.5128C2.89936 14.5974 4.76837 13.3658 7.73482 12.7141L8.30511 12.5895L7.84505 12.2348C6.14856 10.9313 5.18051 8.95687 5.18051 6.82907C5.17572 3.05751 8.23323 0 11.9952 0C15.7572 0 18.8147 3.05751 18.8147 6.81949C18.8147 10.5815 15.7572 13.639 11.9952 13.639C6.63738 13.639 3.7524 15.6661 2.76038 16.5383C1.87859 17.3147 1.3754 18.4361 1.3754 19.615V21.3882C1.3754 22.0687 1.92652 22.6198 2.60703 22.6198H21.393C22.0735 22.6198 22.6246 22.0687 22.6246 21.3882V19.615C22.6246 18.4361 22.1214 17.3147 21.2396 16.5383C20.5495 15.9345 19.7061 15.4073 18.7284 14.9712C18.3834 14.8179 18.2252 14.4105 18.3786 14.0655C18.4888 13.8163 18.7332 13.6581 19.0064 13.6581C19.1022 13.6581 19.1981 13.6773 19.2843 13.7157C20.3914 14.2093 21.3546 14.8083 22.1454 15.508C23.3243 16.5431 24 18.0383 24 19.615V21.3882C24 22.8259 22.8307 23.9904 21.3978 23.9904H2.60224V23.9952ZM11.9952 1.3754C8.99042 1.3754 6.54633 3.81949 6.54633 6.82428C6.54633 9.82907 8.99521 12.2684 11.9952 12.2684C15 12.2684 17.4441 9.82428 17.4441 6.81949C17.4441 3.8147 15 1.3754 11.9952 1.3754Z" fill="white"/>
</svg>
