<svg width="24" height="24" viewBox="0 0 24 24" fill="none" xmlns="http://www.w3.org/2000/svg">
<path d="M11.5469 0C5.73133 0 1 4.73133 1 10.5469C1 11.1914 1 16.1769 1 16.2656C1 17.4287 1.94627 18.375 3.10938 18.375H3.93344C4.22369 19.1933 5.00523 19.7812 5.92188 19.7812C7.08498 19.7812 8.03125 18.835 8.03125 17.6719V11.9531C8.03125 10.79 7.08498 9.84375 5.92188 9.84375C5.00523 9.84375 4.22369 10.4317 3.93344 11.25H3.10938C2.86286 11.25 2.62633 11.2929 2.40625 11.3709V10.5469C2.40625 5.50673 6.50673 1.40625 11.5469 1.40625C16.587 1.40625 20.6875 5.50673 20.6875 10.5469V11.3709C20.4674 11.2929 20.2309 11.25 19.9844 11.25H19.1603C18.8701 10.4317 18.0885 9.84375 17.1719 9.84375C16.0088 9.84375 15.0625 10.79 15.0625 11.9531V17.6719C15.0625 18.835 16.0088 19.7812 17.1719 19.7812C17.3847 19.7812 17.5902 19.7493 17.7841 19.6904C17.5211 20.5558 16.7159 21.1875 15.7656 21.1875H13.5353C13.2451 20.3692 12.4635 19.7812 11.5469 19.7812C10.3838 19.7812 9.4375 20.7275 9.4375 21.8906C9.4375 23.0537 10.3838 24 11.5469 24C12.4635 24 13.2451 23.4121 13.5353 22.5938H15.7656C17.7041 22.5938 19.2812 21.0166 19.2812 19.0781V18.375H19.9844C21.1475 18.375 22.0938 17.4287 22.0938 16.2656C22.0938 16.1782 22.0938 11.1908 22.0938 10.5469C22.0938 4.73133 17.3624 0 11.5469 0ZM5.21875 11.9531C5.21875 11.5654 5.53417 11.25 5.92188 11.25C6.30958 11.25 6.625 11.5654 6.625 11.9531V17.6719C6.625 18.0596 6.30958 18.375 5.92188 18.375C5.53417 18.375 5.21875 18.0596 5.21875 17.6719V11.9531ZM3.10938 12.6562H3.8125V16.9688H3.10938C2.72167 16.9688 2.40625 16.6533 2.40625 16.2656V13.3594C2.40625 12.9717 2.72167 12.6562 3.10938 12.6562ZM11.5469 22.5938C11.1592 22.5938 10.8438 22.2783 10.8438 21.8906C10.8438 21.5029 11.1592 21.1875 11.5469 21.1875C11.9346 21.1875 12.25 21.5029 12.25 21.8906C12.25 22.2783 11.9346 22.5938 11.5469 22.5938ZM17.875 17.6719C17.875 18.0596 17.5596 18.375 17.1719 18.375C16.7842 18.375 16.4688 18.0596 16.4688 17.6719V11.9531C16.4688 11.5654 16.7842 11.25 17.1719 11.25C17.5596 11.25 17.875 11.5654 17.875 11.9531V17.6719ZM20.6875 16.2656C20.6875 16.6533 20.3721 16.9688 19.9844 16.9688H19.2812V12.6562H19.9844C20.3721 12.6562 20.6875 12.9717 20.6875 13.3594V16.2656Z" fill="white"/>
</svg>
