<svg width="24" height="24" viewBox="0 0 24 24" fill="none" xmlns="http://www.w3.org/2000/svg">
<path d="M23.9999 16.9491C23.9999 15.5448 23.5794 14.1887 22.7836 13.0276C22.2113 12.1924 21.4742 11.4989 20.6201 10.9835C21.6257 10.0312 22.2549 8.68517 22.2549 7.19414C22.2549 4.31503 19.9125 1.97266 17.0335 1.97266C15.3263 1.97266 13.7271 2.81698 12.7557 4.20299C12.5089 4.16703 12.2567 4.14764 12 4.14764C11.7433 4.14764 11.4911 4.1671 11.2443 4.20299C10.2729 2.81698 8.67364 1.97266 6.9665 1.97266C4.0874 1.97266 1.74502 4.31503 1.74502 7.19414C1.74502 8.68517 2.37421 10.0312 3.37987 10.9835C2.52569 11.4988 1.78865 12.1924 1.21636 13.0275C0.420615 14.1887 0 15.5448 0 16.9491V19.8534H5.03353V22.0284H18.9665V19.8534H24V16.9491H23.9999ZM17.0335 3.26137C19.202 3.26137 20.9663 5.0256 20.9663 7.1942C20.9663 9.3628 19.202 11.127 17.0335 11.127C16.9946 11.127 16.9558 11.1264 16.9169 11.1253C16.9198 11.117 16.9223 11.1086 16.9252 11.1004C16.9923 10.91 17.0483 10.7145 17.0932 10.5149C17.0964 10.5007 17.1 10.4866 17.103 10.4724C17.1147 10.4185 17.1249 10.3641 17.1349 10.3096C17.1396 10.2839 17.1444 10.2582 17.1488 10.2323C17.1569 10.1837 17.1642 10.1348 17.171 10.0858C17.1757 10.0517 17.18 10.0176 17.184 9.98348C17.1891 9.94018 17.1941 9.89682 17.1981 9.8532C17.2022 9.80868 17.2053 9.76409 17.2083 9.71944C17.2106 9.68426 17.2135 9.64921 17.2151 9.61383C17.2187 9.53799 17.2207 9.46203 17.2209 9.386C17.2209 9.38039 17.2214 9.37492 17.2214 9.36925C17.2214 9.36622 17.2211 9.36319 17.2211 9.36016C17.221 9.28252 17.2187 9.20533 17.2153 9.1284C17.2142 9.10604 17.2129 9.08375 17.2116 9.06145C17.2078 8.99605 17.2028 8.93098 17.1967 8.86622C17.1953 8.85153 17.1941 8.83684 17.1926 8.82221C16.9979 6.94021 15.809 5.32933 14.0938 4.58423C14.8329 3.75389 15.9019 3.26137 17.0335 3.26137ZM10.6392 5.679C10.6518 5.67443 10.6645 5.67011 10.677 5.6656C10.7162 5.65162 10.7556 5.63835 10.7952 5.62553C10.8252 5.61593 10.8555 5.60665 10.8859 5.59776C10.908 5.59125 10.9301 5.585 10.9524 5.57881C10.9921 5.56792 11.0319 5.55729 11.0722 5.54756C11.3699 5.47527 11.6803 5.43603 11.9998 5.43603C12.3196 5.43629 12.6302 5.47559 12.9279 5.54789C12.9679 5.55755 13.0076 5.56812 13.0471 5.57894C13.0696 5.58519 13.0922 5.59151 13.1145 5.59814C13.1445 5.60697 13.1744 5.61612 13.2041 5.62559C13.2443 5.63854 13.2842 5.65194 13.3237 5.66612C13.3359 5.67044 13.3481 5.67456 13.3602 5.679C14.6755 6.16541 15.6616 7.33595 15.8848 8.75649C15.8865 8.76783 15.8882 8.77924 15.8899 8.79064C15.897 8.83877 15.903 8.88729 15.9084 8.93594C15.9103 8.95385 15.9124 8.9717 15.9141 8.98967C15.9184 9.03407 15.9215 9.07878 15.9244 9.12363C15.9255 9.14283 15.9271 9.16197 15.928 9.18123C15.9307 9.23851 15.9322 9.29612 15.9324 9.35404C15.9324 9.35907 15.9327 9.36396 15.9327 9.36899C15.9327 9.37131 15.9326 9.37369 15.9326 9.37601C15.9325 9.43207 15.9308 9.48774 15.9284 9.54321C15.9276 9.56068 15.9268 9.57814 15.9258 9.59553C15.9227 9.64914 15.9188 9.70249 15.9136 9.75545C15.9116 9.77594 15.9089 9.79637 15.9066 9.81679C15.9026 9.85107 15.8983 9.88529 15.8935 9.91931C15.8898 9.94579 15.886 9.97233 15.8818 9.99869C15.8753 10.0388 15.868 10.0787 15.8603 10.1185C15.8534 10.1538 15.8459 10.1891 15.838 10.2243C15.8333 10.2455 15.8284 10.2667 15.8233 10.2877C15.8108 10.34 15.797 10.3919 15.7823 10.4437C15.7764 10.4642 15.7709 10.4849 15.7648 10.5053C15.7558 10.5349 15.7461 10.5643 15.7365 10.5937C15.7288 10.6172 15.7209 10.6406 15.7127 10.6639C15.7034 10.6904 15.6943 10.7169 15.6845 10.7432C15.6678 10.7879 15.6503 10.8321 15.632 10.876C15.6239 10.8956 15.6153 10.915 15.6068 10.9345C15.5909 10.971 15.5746 11.0074 15.5575 11.0433C15.5555 11.0476 15.5535 11.0518 15.5515 11.0561C15.5454 11.0688 15.5394 11.0817 15.5331 11.0944C15.5141 11.1333 15.4942 11.1718 15.4738 11.21C15.4659 11.2248 15.4583 11.2398 15.4501 11.2545C15.4496 11.2555 15.4491 11.2564 15.4486 11.2573C15.4263 11.2979 15.403 11.3379 15.3794 11.3775C15.37 11.3933 15.3607 11.409 15.3511 11.4246C15.3253 11.4664 15.2988 11.5078 15.2716 11.5485C15.2546 11.5738 15.2369 11.5986 15.2194 11.6235C15.2045 11.6447 15.1897 11.6659 15.1744 11.6867C15.1546 11.7136 15.1345 11.7402 15.114 11.7667C15.1001 11.7847 15.086 11.8025 15.0719 11.8203C15.0502 11.8474 15.0284 11.8743 15.0061 11.9008C14.9922 11.9172 14.978 11.9333 14.9639 11.9495C14.9407 11.9761 14.9175 12.0028 14.8937 12.0288C14.8795 12.0442 14.8648 12.059 14.8504 12.0742C14.8116 12.1151 14.7719 12.1551 14.7315 12.1944C14.7074 12.2176 14.6835 12.2409 14.6589 12.2636C14.6419 12.2792 14.6244 12.2944 14.6071 12.3098C14.5789 12.3349 14.5505 12.3597 14.5215 12.3839C14.5068 12.3962 14.492 12.4084 14.4771 12.4205C14.4422 12.449 14.4067 12.4769 14.3707 12.5042C14.3609 12.5116 14.3512 12.5192 14.3414 12.5265C13.6867 13.0132 12.8764 13.3016 11.9999 13.3016C11.1233 13.3016 10.3129 13.0131 9.65823 12.5263C9.64857 12.5191 9.6391 12.5117 9.6295 12.5044C9.59335 12.477 9.55772 12.4489 9.5226 12.4203C9.50785 12.4083 9.49309 12.3962 9.47853 12.384C9.44947 12.3596 9.42099 12.3347 9.39264 12.3096C9.37544 12.2942 9.35804 12.2791 9.3411 12.2636C9.31642 12.2409 9.29245 12.2175 9.26835 12.1942C9.2277 12.1549 9.18794 12.1147 9.14902 12.0737C9.13478 12.0587 9.12022 12.044 9.10624 12.0288C9.08234 12.0028 9.05921 11.9761 9.03601 11.9494C9.0219 11.9333 9.00772 11.9172 8.99387 11.9008C8.97151 11.8743 8.94973 11.8474 8.92809 11.8204C8.91391 11.8026 8.8998 11.7848 8.88588 11.7667C8.86546 11.7403 8.84529 11.7137 8.82551 11.6868C8.81024 11.6659 8.79535 11.6446 8.78047 11.6234C8.76295 11.5985 8.74529 11.5738 8.72841 11.5485C8.70103 11.5076 8.67442 11.4661 8.64858 11.4242C8.63911 11.4088 8.62996 11.3933 8.62068 11.3777C8.59665 11.3375 8.57313 11.297 8.55051 11.2558C8.5422 11.2407 8.53434 11.2253 8.52616 11.2101C8.50579 11.1718 8.48589 11.1332 8.46675 11.0942C8.45992 11.0804 8.45328 11.0664 8.44665 11.0525C8.44561 11.0504 8.44465 11.0482 8.44368 11.0461C8.42583 11.0085 8.40876 10.9705 8.39207 10.9321C8.38415 10.9139 8.37609 10.8957 8.36849 10.8774C8.3498 10.8326 8.33196 10.7873 8.31488 10.7417C8.30567 10.7171 8.29716 10.6922 8.28846 10.6674C8.27951 10.642 8.27087 10.6163 8.26243 10.5906C8.25335 10.5628 8.2442 10.535 8.23569 10.507C8.223 10.4652 8.21102 10.4231 8.19974 10.3808C8.19182 10.3511 8.18466 10.3211 8.17738 10.2912C8.17171 10.2677 8.16624 10.2442 8.16102 10.2205C8.15457 10.1915 8.14807 10.1626 8.14227 10.1335C8.13331 10.0881 8.12513 10.0425 8.11778 9.99663C8.11379 9.97188 8.11031 9.94708 8.10676 9.92234C8.10155 9.88567 8.09684 9.84882 8.09265 9.81183C8.09059 9.7936 8.08821 9.77536 8.08634 9.75713C8.08099 9.70281 8.07693 9.64811 8.07384 9.59321C8.07294 9.57743 8.07223 9.56164 8.07152 9.54586C8.06888 9.48716 8.06701 9.42827 8.06701 9.36899C8.06701 9.30546 8.06881 9.24238 8.07184 9.17956C8.07268 9.16248 8.0741 9.14554 8.07506 9.12853C8.0779 9.08136 8.08131 9.03433 8.08582 8.98755C8.08737 8.97125 8.08924 8.95501 8.09098 8.93877C8.09652 8.88813 8.10277 8.83774 8.11024 8.78768C8.11166 8.77795 8.11308 8.76816 8.11463 8.75843C8.33711 7.33705 9.32344 6.16573 10.6392 5.679ZM3.03367 7.1942C3.03367 5.02566 4.7979 3.26137 6.9665 3.26137C8.09813 3.26137 9.16713 3.75396 9.90623 4.5841C8.19046 5.32946 7.00123 6.94111 6.8071 8.82389C6.80574 8.83665 6.80478 8.84947 6.80355 8.86229C6.79711 8.92937 6.79202 8.9967 6.78815 9.06442C6.78699 9.08503 6.78571 9.10559 6.78474 9.12627C6.78107 9.20688 6.77855 9.28774 6.77855 9.36918C6.77855 9.4514 6.78094 9.53342 6.7848 9.61538C6.78635 9.64837 6.78906 9.68104 6.79118 9.71383C6.79434 9.761 6.79756 9.80816 6.80194 9.8552C6.80581 9.89701 6.81058 9.93857 6.81547 9.98013C6.81973 10.0163 6.82424 10.0524 6.82926 10.0885C6.83583 10.1359 6.84292 10.183 6.85072 10.23C6.85542 10.2579 6.86058 10.2857 6.86567 10.3136C6.87533 10.3661 6.88519 10.4186 6.8964 10.4706C6.90014 10.4877 6.90439 10.5047 6.90826 10.5218C6.95201 10.7153 7.00632 10.9047 7.07101 11.0895C7.07514 11.1014 7.07874 11.1134 7.08293 11.1253C7.04408 11.1264 7.00516 11.127 6.96637 11.127C4.7979 11.127 3.03367 9.36274 3.03367 7.1942ZM6.11387 15.4094C6.09969 15.4318 6.08616 15.4545 6.07224 15.477C6.0428 15.5245 6.01361 15.5722 5.98539 15.6204C5.9696 15.6472 5.9544 15.6743 5.93906 15.7013C5.91368 15.746 5.88861 15.7908 5.86426 15.8359C5.84892 15.8644 5.83384 15.8929 5.8189 15.9214C5.79544 15.9664 5.77257 16.0115 5.75015 16.0568C5.73604 16.0853 5.72199 16.1137 5.70833 16.1423C5.68552 16.1901 5.66355 16.2382 5.64184 16.2864C5.63004 16.3126 5.61793 16.3386 5.60653 16.365C5.5814 16.4227 5.55743 16.4809 5.53391 16.5393C5.52702 16.5564 5.51967 16.5732 5.51297 16.5903C5.48314 16.6662 5.4546 16.7425 5.42753 16.8193C5.42135 16.8368 5.41581 16.8546 5.40969 16.8722C5.38933 16.9314 5.36948 16.9907 5.35073 17.0503C5.34216 17.0777 5.33424 17.1052 5.32599 17.1327C5.31085 17.1832 5.29596 17.2337 5.28198 17.2846C5.27367 17.3149 5.26574 17.3453 5.25782 17.3757C5.24506 17.4245 5.23282 17.4735 5.22122 17.5227C5.21381 17.5538 5.20659 17.5849 5.1997 17.6161C5.18862 17.6659 5.17824 17.7159 5.16826 17.766C5.16227 17.796 5.15608 17.8261 5.15047 17.8564C5.14036 17.9109 5.13127 17.9656 5.12245 18.0205C5.11832 18.0462 5.11375 18.0719 5.10988 18.0977C5.0979 18.1782 5.08701 18.2589 5.07786 18.34C5.07773 18.341 5.07767 18.342 5.0776 18.343C5.06929 18.4167 5.06214 18.4906 5.05614 18.5648H1.28865V16.9491C1.28865 14.7418 2.55758 12.7602 4.54558 11.8183C5.2698 12.199 6.09306 12.4157 6.96644 12.4157C7.21901 12.4157 7.47236 12.397 7.72378 12.36C7.76295 12.4159 7.80277 12.4712 7.84401 12.5254C7.85793 12.5436 7.87236 12.5614 7.88653 12.5795C7.92726 12.6315 7.96856 12.683 8.01121 12.7335C8.02867 12.7541 8.04659 12.7744 8.06437 12.7948C8.10432 12.8407 8.14491 12.886 8.1864 12.9304C8.20818 12.9538 8.23035 12.9768 8.25251 12.9998C8.29046 13.0389 8.32893 13.0774 8.36804 13.1154C8.38273 13.1296 8.39658 13.1447 8.4114 13.1588C8.35541 13.1926 8.29993 13.2273 8.24497 13.2626C8.23602 13.2684 8.22725 13.2744 8.21836 13.2802C8.1634 13.3159 8.10902 13.3524 8.05515 13.3896C8.03653 13.4025 8.01798 13.4155 7.99942 13.4285C7.95142 13.4623 7.90393 13.4967 7.85683 13.5317C7.84195 13.5428 7.82687 13.5536 7.81212 13.5648C7.75219 13.6101 7.69298 13.6563 7.63454 13.7034C7.62178 13.7137 7.60928 13.7244 7.59652 13.7348C7.55 13.7729 7.50393 13.8116 7.45845 13.8509C7.44079 13.8661 7.42327 13.8815 7.40574 13.8969C7.36019 13.937 7.31521 13.9777 7.27069 14.019C7.25909 14.0298 7.24724 14.0403 7.2357 14.0512C7.18106 14.1026 7.12726 14.155 7.07423 14.2083C7.06045 14.2222 7.04698 14.2363 7.03332 14.2502C6.99273 14.2916 6.95259 14.3335 6.91296 14.376C6.89724 14.3929 6.88152 14.4097 6.86592 14.4268C6.82134 14.4755 6.77739 14.5249 6.73416 14.5749C6.72739 14.5828 6.72037 14.5904 6.71361 14.5983C6.66431 14.6559 6.61612 14.7145 6.56857 14.7737C6.5553 14.7902 6.54234 14.807 6.52926 14.8236C6.4935 14.8691 6.45826 14.9149 6.4236 14.9613C6.41019 14.9792 6.39673 14.997 6.38352 15.015C6.33816 15.0769 6.29338 15.1392 6.24989 15.2027C6.20317 15.2709 6.15794 15.3399 6.11387 15.4094ZM6.32218 20.7398V19.8535V19.1241C6.32218 19.0526 6.32353 18.9813 6.32617 18.9103C6.32701 18.8869 6.32888 18.8637 6.33004 18.8404C6.33236 18.7929 6.33455 18.7455 6.33803 18.6982C6.34016 18.6696 6.34338 18.6411 6.34595 18.6125C6.34969 18.5709 6.35304 18.5292 6.35768 18.4879C6.3611 18.4576 6.36554 18.4275 6.36941 18.3973C6.37443 18.3579 6.37914 18.3185 6.38494 18.2793C6.38964 18.2481 6.39531 18.2172 6.40046 18.1861C6.40678 18.1484 6.41264 18.1105 6.41973 18.0729C6.42572 18.0411 6.43268 18.0097 6.43919 17.9781C6.44666 17.9416 6.45381 17.905 6.462 17.8688C6.46921 17.8368 6.47746 17.8052 6.48519 17.7734C6.49389 17.7379 6.5022 17.7023 6.51155 17.6671C6.52005 17.635 6.52946 17.6033 6.53848 17.5716C6.54827 17.537 6.55781 17.5023 6.56825 17.468C6.57798 17.436 6.58867 17.4043 6.59892 17.3725C6.60987 17.3388 6.6205 17.3051 6.63203 17.2716C6.64299 17.24 6.65478 17.2086 6.66625 17.1772C6.67836 17.1441 6.69022 17.1109 6.70291 17.078C6.71502 17.0468 6.72791 17.0159 6.74047 16.9848C6.75368 16.9524 6.7667 16.9198 6.78049 16.8877C6.79382 16.8567 6.80787 16.826 6.82172 16.7953C6.83596 16.7637 6.85007 16.7319 6.86489 16.7006C6.87939 16.67 6.8946 16.6398 6.90961 16.6095C6.92494 16.5785 6.94009 16.5475 6.95594 16.5169C6.97159 16.4868 6.9879 16.457 7.00407 16.4272C7.02043 16.397 7.03661 16.3667 7.05349 16.3368C7.07024 16.3072 7.08764 16.278 7.10484 16.2487C7.12224 16.2192 7.1395 16.1896 7.15748 16.1604C7.17533 16.1313 7.19376 16.1027 7.21212 16.074C7.23055 16.0452 7.24885 16.0164 7.26779 15.9879C7.28673 15.9594 7.30619 15.9313 7.32565 15.9032C7.34504 15.8752 7.36437 15.8472 7.38422 15.8195C7.40419 15.7916 7.42475 15.7642 7.4453 15.7367C7.46566 15.7094 7.48596 15.6821 7.50677 15.6553C7.52777 15.6282 7.54929 15.6014 7.57082 15.5746C7.59214 15.5481 7.61353 15.5216 7.63531 15.4954C7.65728 15.4691 7.67971 15.4432 7.70213 15.4173C7.72449 15.3914 7.74691 15.3656 7.76978 15.3401C7.79266 15.3146 7.81605 15.2894 7.83937 15.2643C7.86269 15.2392 7.88602 15.2143 7.90979 15.1897C7.93363 15.1649 7.95793 15.1406 7.98228 15.1163C8.00657 15.092 8.03099 15.0678 8.05573 15.0439C8.08041 15.0202 8.10548 14.9967 8.13067 14.9733C8.15593 14.9499 8.18131 14.9265 8.20702 14.9034C8.23267 14.8805 8.25857 14.8579 8.28466 14.8354C8.31082 14.8128 8.33718 14.7903 8.36379 14.7681C8.39027 14.7461 8.41701 14.7244 8.44394 14.7028C8.47107 14.681 8.49839 14.6594 8.52596 14.6381C8.55322 14.6171 8.58073 14.5963 8.60837 14.5757C8.63646 14.5548 8.66475 14.5341 8.69336 14.5137C8.72132 14.4936 8.74954 14.4739 8.77796 14.4543C8.80708 14.4343 8.83633 14.4145 8.86584 14.395C8.89452 14.376 8.92345 14.3573 8.95251 14.3388C8.9826 14.3197 9.01288 14.3008 9.04335 14.2822C9.07274 14.2643 9.10231 14.2466 9.13208 14.2292C9.16301 14.2111 9.19419 14.1932 9.22557 14.1757C9.25566 14.1588 9.28594 14.1421 9.31642 14.1257C9.34831 14.1086 9.38047 14.0918 9.41281 14.0751C9.44348 14.0594 9.47428 14.0438 9.50534 14.0286C9.52976 14.0166 9.55443 14.005 9.57911 13.9933C10.3033 14.374 11.1266 14.5906 12 14.5906C12.8734 14.5906 13.6967 14.374 14.4208 13.9933C14.4453 14.0049 14.4698 14.0164 14.494 14.0283C14.5255 14.0438 14.5566 14.0595 14.5876 14.0754C14.6196 14.0918 14.6514 14.1084 14.683 14.1254C14.7138 14.142 14.7444 14.1588 14.7748 14.1759C14.8058 14.1933 14.8366 14.2109 14.8671 14.2288C14.8974 14.2465 14.9273 14.2644 14.9571 14.2826C14.9872 14.301 15.017 14.3195 15.0467 14.3384C15.0762 14.3572 15.1054 14.3761 15.1345 14.3954C15.1637 14.4146 15.1926 14.4342 15.2213 14.454C15.25 14.4738 15.2785 14.4937 15.3068 14.5139C15.3351 14.5342 15.3631 14.5546 15.3909 14.5754C15.4189 14.5961 15.4467 14.6171 15.4742 14.6383C15.5015 14.6595 15.5285 14.6809 15.5555 14.7025C15.5825 14.7242 15.6095 14.746 15.6362 14.7682C15.6626 14.7902 15.6888 14.8126 15.7148 14.8351C15.741 14.8577 15.7671 14.8804 15.7929 14.9035C15.8184 14.9264 15.8436 14.9496 15.8687 14.9729C15.8941 14.9965 15.9194 15.0202 15.9443 15.0442C15.9689 15.0678 15.993 15.0918 16.0171 15.1158C16.0416 15.1403 16.066 15.1649 16.0901 15.1898C16.1137 15.2142 16.1369 15.239 16.1601 15.2639C16.1836 15.2892 16.2072 15.3146 16.2302 15.3403C16.2529 15.3655 16.2751 15.3911 16.2973 15.4167C16.3199 15.4428 16.3425 15.469 16.3646 15.4956C16.3863 15.5215 16.4075 15.5479 16.4287 15.5742C16.4504 15.6012 16.472 15.628 16.4932 15.6553C16.5139 15.6821 16.5341 15.7092 16.5543 15.7363C16.5749 15.7639 16.5956 15.7916 16.6157 15.8195C16.6354 15.847 16.6547 15.875 16.674 15.9029C16.6935 15.9311 16.7131 15.9593 16.7321 15.9879C16.7509 16.0162 16.7691 16.0448 16.7874 16.0734C16.8059 16.1024 16.8244 16.1312 16.8424 16.1605C16.8602 16.1894 16.8773 16.2188 16.8946 16.2481C16.912 16.2776 16.9295 16.307 16.9463 16.3368C16.9631 16.3666 16.9792 16.3968 16.9955 16.4268C17.0118 16.4568 17.0281 16.4867 17.0438 16.5169C17.0597 16.5474 17.0747 16.5784 17.0901 16.6093C17.1051 16.6396 17.1204 16.6699 17.1348 16.7006C17.1497 16.7319 17.1637 16.7635 17.1779 16.7951C17.1918 16.826 17.2059 16.8566 17.2193 16.8877C17.233 16.9196 17.2458 16.9519 17.2589 16.9841C17.2717 17.0154 17.2847 17.0466 17.2969 17.0782C17.3095 17.1109 17.3213 17.1439 17.3334 17.1769C17.3449 17.2084 17.3567 17.2398 17.3676 17.2716C17.3792 17.3051 17.3899 17.3391 17.4009 17.3729C17.4111 17.4046 17.4218 17.4361 17.4314 17.468C17.4419 17.5023 17.4514 17.537 17.4613 17.5716C17.4703 17.6034 17.4797 17.635 17.4882 17.6671C17.4975 17.7023 17.5059 17.7379 17.5145 17.7734C17.5223 17.8051 17.5305 17.8368 17.5377 17.8688C17.5459 17.905 17.553 17.9415 17.5606 17.9779C17.5671 18.0096 17.574 18.0411 17.58 18.0729C17.587 18.1102 17.5928 18.1477 17.5991 18.1852C17.6044 18.2166 17.6102 18.2478 17.6149 18.2794C17.6207 18.3182 17.6253 18.3574 17.6303 18.3964C17.6343 18.4269 17.6388 18.4572 17.6422 18.4878C17.6468 18.5292 17.6502 18.5708 17.6539 18.6125C17.6565 18.6411 17.6597 18.6695 17.6618 18.6982C17.6654 18.7454 17.6675 18.7929 17.6698 18.8404C17.671 18.8637 17.6729 18.8869 17.6737 18.9102C17.6763 18.9813 17.6777 19.0525 17.6777 19.1241V19.8534V20.7398H6.32218ZM18.9441 18.5648C18.9315 18.4078 18.9133 18.2518 18.8902 18.0968C18.8866 18.0723 18.8822 18.0479 18.8783 18.0234C18.8693 17.9673 18.86 17.9113 18.8496 17.8555C18.8441 17.8261 18.8381 17.7969 18.8323 17.7676C18.8221 17.7166 18.8116 17.6658 18.8003 17.6151C18.7935 17.5846 18.7864 17.554 18.7792 17.5236C18.7674 17.4739 18.755 17.4243 18.7421 17.3749C18.7343 17.345 18.7265 17.3151 18.7183 17.2852C18.7042 17.2337 18.6891 17.1826 18.6738 17.1315C18.6656 17.1046 18.6579 17.0776 18.6495 17.0507C18.6305 16.9902 18.6104 16.93 18.5897 16.87C18.5839 16.8532 18.5786 16.8363 18.5727 16.8195C18.5455 16.7425 18.5169 16.666 18.487 16.5899C18.4805 16.5736 18.4735 16.5575 18.4669 16.5412C18.4432 16.4821 18.4188 16.4231 18.3933 16.3646C18.3821 16.3386 18.3701 16.313 18.3586 16.2872C18.3366 16.2385 18.3145 16.1899 18.2914 16.1417C18.2779 16.1135 18.264 16.0855 18.2502 16.0575C18.2276 16.0117 18.2044 15.9662 18.1808 15.9209C18.166 15.8925 18.1511 15.8643 18.1359 15.8361C18.1114 15.7908 18.0863 15.7459 18.0607 15.701C18.0454 15.6741 18.0303 15.6472 18.0146 15.6204C17.9863 15.572 17.9569 15.5242 17.9273 15.4763C17.9135 15.4541 17.9001 15.4316 17.8861 15.4095C17.8419 15.3399 17.7967 15.2709 17.7499 15.2027C17.7064 15.1392 17.6616 15.0768 17.6162 15.0149C17.6031 14.997 17.5897 14.9793 17.5764 14.9615C17.5415 14.9149 17.5062 14.8689 17.4703 14.8233C17.4573 14.8069 17.4445 14.7903 17.4314 14.774C17.3838 14.7146 17.3354 14.6558 17.2859 14.5981C17.2795 14.5907 17.2729 14.5834 17.2664 14.5759C17.2229 14.5255 17.1785 14.4757 17.1336 14.4266C17.1182 14.4097 17.1026 14.393 17.087 14.3763C17.0472 14.3336 17.0068 14.2914 16.966 14.2497C16.9525 14.236 16.9393 14.2222 16.9257 14.2086C16.8725 14.1552 16.8186 14.1026 16.7638 14.0511C16.7525 14.0405 16.7409 14.0302 16.7296 14.0196C16.6848 13.978 16.6396 13.9371 16.5938 13.8968C16.5764 13.8815 16.5589 13.8662 16.5414 13.851C16.4957 13.8117 16.4497 13.7729 16.4031 13.7348C16.3904 13.7244 16.378 13.7138 16.3652 13.7035C16.3068 13.6563 16.2476 13.6102 16.1878 13.565C16.1728 13.5537 16.1576 13.5427 16.1426 13.5316C16.0957 13.4968 16.0485 13.4625 16.0006 13.4289C15.9819 13.4157 15.9631 13.4025 15.9443 13.3895C15.891 13.3527 15.8372 13.3166 15.7828 13.2813C15.7733 13.2751 15.7639 13.2687 15.7544 13.2626C15.6995 13.2273 15.6442 13.1927 15.5883 13.159C15.6027 13.1452 15.6162 13.1306 15.6305 13.1167C15.6704 13.078 15.7097 13.0387 15.7483 12.9988C15.7699 12.9765 15.7914 12.9541 15.8125 12.9315C15.8547 12.8864 15.8958 12.8404 15.9364 12.7938C15.9537 12.774 15.971 12.7543 15.988 12.7342C16.0312 12.6831 16.0732 12.6308 16.1145 12.5779C16.128 12.5607 16.1419 12.5436 16.1552 12.5262C16.1966 12.4717 16.2366 12.4162 16.276 12.3601C16.5274 12.3971 16.7807 12.4157 17.0333 12.4157C17.9067 12.4157 18.73 12.1991 19.4542 11.8184C21.4422 12.7603 22.7111 14.7419 22.7111 16.9492V18.5648H18.9441Z" fill="white"/>
</svg>
